<!-- Generated by IcoMoon.io -->
<svg version="1.1" xmlns="http://www.w3.org/2000/svg" width="32" height="32" viewBox="0 0 32 32">
<title>mail</title>
<path d="M25.333 10h-18.667c-1.472 0-2.667 1.195-2.667 2.667v12c0 1.472 1.195 2.667 2.667 2.667h18.667c1.472 0 2.667-1.195 2.667-2.667v-12c0-1.472-1.195-2.667-2.667-2.667zM12.421 19.755l2.136 1.867c0.407 0.355 0.921 0.531 1.443 0.531s1.036-0.177 1.443-0.531l2.136-1.867-0.049 0.049 4.861 4.861h-16.781l4.861-4.861-0.049-0.049zM6.667 23.724v-9.004l4.803 4.201-4.803 4.803zM20.531 18.921l4.803-4.201v9l-4.803-4.799zM25.333 12.667v0.28l-8.768 7.672c-0.303 0.264-0.828 0.264-1.131 0l-8.768-7.672v-0.28h18.667z"></path>
</svg>
